<svg baseProfile="full" height="1000px" version="1.1" width="1000px" xmlns="http://www.w3.org/2000/svg" xmlns:ev="http://www.w3.org/2001/xml-events" xmlns:xlink="http://www.w3.org/1999/xlink"><defs><style type="text/css"><![CDATA[svg * { shape-rendering: crispEdges; }]]></style><radialGradient cx="50%" cy="50%" fx="50%" fy="50%" id="bg_grad_1556" r="75%"><stop offset="0" stop-color="#f5983b" /><stop offset="1" stop-color="#c16509" /></radialGradient></defs><rect fill="url(#bg_grad_1556)" height="1000" width="1000" x="0" y="0" /><g id="grid_elements"><g id="cell_0_0"><rect fill="#0000FF" height="100" width="100" x="0" y="0" /><g opacity="1.0"><polygon fill="#FF0000" points="100,0 99.63538235212808,98.96718780531215 0,0" /></g></g><g id="cell_1_0"><rect fill="#FF0000" height="100" width="100" x="100" y="0" /><g opacity="1.0" transform="rotate(0 150.0 50.0)"><circle cx="150.0" cy="50.0" fill="#0000FF" r="33.61140490793993" /></g></g><g id="cell_2_0"><rect fill="#0000FF" height="100" width="100" x="200" y="0" /><g opacity="1.0"><path d="M 200 0 L 282.50460700339806 0 A 82.50460700339809 82.50460700339809 0 0 0 200 82.50460700339809 Z" fill="#FF0000" /></g></g><g id="cell_3_0"><rect fill="#FF0000" height="100" width="100" x="300" y="0" /><text dominant-baseline="central" fill="#FFFF00" font-family="monospace, Courier, 'Courier New'" font-size="67.38675666756835px" font-weight="bold" opacity="1.0" text-anchor="middle" transform="rotate(0 350.0 50.0)" x="350.0" y="50.0">P</text></g><g id="cell_4_0"><rect fill="#0000FF" height="100" width="100" x="400" y="0" /><g opacity="1.0" transform="rotate(0 450.0 50.0)"><rect fill="#FF0000" height="22.825137878886945" width="100" x="400" y="38.587431060556526" /><rect fill="#FF0000" height="100" width="22.825137878886945" x="438.5874310605565" y="0" /></g></g><g id="cell_5_0"><rect fill="#FF0000" height="100" width="100" x="500" y="0" /><circle cx="550.0" cy="50.0" fill="#FFFF00" opacity="1.0" r="59.45543779593091" /><circle cx="550.0" cy="50.0" fill="#FFFF00" opacity="1.0" r="59.45543779593091" /></g><g id="cell_6_0"><rect fill="#0000FF" height="100" width="100" x="600" y="0" /><g opacity="1.0"><polygon fill="#FF0000" points="700,0 700,100 600,0" /></g></g><g id="cell_7_0"><rect fill="#0000FF" height="100" width="100" x="700" y="0" /><g opacity="1.0" transform="rotate(0 750.0 50.0)"><rect fill="#FF0000" height="26.65002540426219" width="100" x="700" y="36.6749872978689" /><rect fill="#FF0000" height="100" width="26.65002540426219" x="736.6749872978689" y="0" /></g></g><g id="cell_8_0"><rect fill="#FF0000" height="100" width="100" x="800" y="0" /><text dominant-baseline="central" fill="#FFFF00" font-family="monospace, Courier, 'Courier New'" font-size="76.63108124461722px" font-weight="bold" opacity="1.0" text-anchor="middle" transform="rotate(0 850.0 50.0)" x="850.0" y="50.0">R</text></g><g id="cell_9_0"><rect fill="#0000FF" height="100" width="100" x="900" y="0" /><circle cx="950.0" cy="50.0" fill="#FFFF00" opacity="1.0" r="39.84622628021232" /><circle cx="950.0" cy="50.0" fill="#0000FF" opacity="0.9" r="13.99980385042432" /></g><g id="cell_0_1"><rect fill="#FF0000" height="100" width="100" x="0" y="100" /><g opacity="0.94"><polygon fill="#0000FF" points="0,100 100,100 100,150.0 0,150.0" /></g></g><g id="cell_1_1"><rect fill="#FF0000" height="100" width="100" x="100" y="100" /><g opacity="0.67"><polygon fill="#FFFF00" points="100,100 200,100 200,150.0 100,150.0" /></g></g><g id="cell_2_1"><rect fill="#0000FF" height="100" width="100" x="200" y="100" /><g opacity="1.0" transform="rotate(30 250.0 150.0)"><polygon fill="#FFFF00" points="191.2277292863526,108.77227071364742 291.2277292863526,208.7722707136474 308.7722707136474,191.2277292863526 208.7722707136474,91.22772928635258" /><polygon fill="#FFFF00" points="291.2277292863526,91.22772928635258 191.2277292863526,191.2277292863526 208.7722707136474,208.7722707136474 308.7722707136474,108.77227071364742" /></g></g><g id="cell_3_1"><rect fill="#FFFF00" height="100" width="100" x="300" y="100" /><g opacity="1.0"><rect fill="#0000FF" height="12.701940698772624" width="100" x="300" y="100.0" /><rect fill="#FFFF00" height="17.751992996652564" width="100" x="300" y="114.28571428571429" /><rect fill="#0000FF" height="11.687174732697594" width="100" x="300" y="128.57142857142858" /><rect fill="#FFFF00" height="10.687836859365216" width="100" x="300" y="142.85714285714286" /><rect fill="#0000FF" height="10.90967884721702" width="100" x="300" y="157.14285714285714" /><rect fill="#FFFF00" height="12.936585739044862" width="100" x="300" y="171.42857142857144" /><rect fill="#0000FF" height="12.213298460027177" width="100" x="300" y="185.71428571428572" /></g></g><g id="cell_4_1"><rect fill="#FFFF00" height="100" width="100" x="400" y="100" /><circle cx="450.0" cy="150.0" fill="#0000FF" opacity="1.0" r="40.6208489003735" /><circle cx="450.0" cy="150.0" fill="#FFFF00" opacity="1.0" r="14.787925875707463" /></g><g id="cell_5_1"><rect fill="#FFFF00" height="100" width="100" x="500" y="100" /><text dominant-baseline="central" fill="#0000FF" font-family="monospace, Courier, 'Courier New'" font-size="63.351197755086154px" font-weight="bold" opacity="1.0" text-anchor="middle" transform="rotate(0 550.0 150.0)" x="550.0" y="150.0">A</text></g><g id="cell_6_1"><rect fill="#0000FF" height="100" width="100" x="600" y="100" /><g opacity="1.0"><rect fill="#FF0000" height="100" width="38.33252256082885" x="600.0" y="100" /><rect fill="#0000FF" height="100" width="37.55859871165241" x="633.3333333333334" y="100" /><rect fill="#FF0000" height="100" width="27.11080478254453" x="666.6666666666666" y="100" /></g></g><g id="cell_7_1"><rect fill="#FF0000" height="100" width="100" x="700" y="100" /><circle cx="750.0" cy="150.0" fill="#0000FF" opacity="0.75" r="48.87375323777972" /></g><g id="cell_8_1"><rect fill="#FFFF00" height="100" width="100" x="800" y="100" /><circle cx="850.0" cy="150.0" fill="#0000FF" opacity="1.0" r="46.9678783855208" /></g><g id="cell_9_1"><rect fill="#FFFF00" height="100" width="100" x="900" y="100" /><circle cx="913.1380638908113" cy="112.32237700661324" fill="#0000FF" opacity="1.0" r="7.409503885053144" /><circle cx="912.1673112514482" cy="138.036533750336" fill="#0000FF" opacity="1.0" r="8.384008268057256" /><circle cx="912.8928878167608" cy="162.49094379869803" fill="#0000FF" opacity="1.0" r="6.557900999338607" /><circle cx="912.7006837823623" cy="186.8081022593837" fill="#0000FF" opacity="0.86" r="7.972643789867437" /><circle cx="938.1884641389541" cy="112.81439951551319" fill="#0000FF" opacity="1.0" r="7.476069791843641" /><circle cx="937.8940459668707" cy="138.2427968535952" fill="#0000FF" opacity="0.75" r="7.0420391396816715" /><circle cx="937.9122379374269" cy="162.16333809366844" fill="#0000FF" opacity="0.67" r="10.11152096739475" /><circle cx="936.7823518815184" cy="187.2379706944118" fill="#0000FF" opacity="1.0" r="5.907033797754335" /><circle cx="962.1742775062329" cy="112.59177136725351" fill="#0000FF" opacity="1.0" r="5.956132243571602" /><circle cx="962.8438560171369" cy="137.05951937248028" fill="#0000FF" opacity="1.0" r="9.63237859318961" /><circle cx="962.0505577786581" cy="162.59660427034422" fill="#0000FF" opacity="1.0" r="9.366928481826372" /><circle cx="961.8746770907866" cy="186.83634048241066" fill="#0000FF" opacity="0.86" r="5.531763108512382" /><circle cx="987.7314123230466" cy="112.53192542593656" fill="#0000FF" opacity="1.0" r="8.701047902549197" /><circle cx="987.3824687708275" cy="138.01170060093332" fill="#0000FF" opacity="1.0" r="10.56452483860045" /><circle cx="987.0463431069857" cy="162.84158348892154" fill="#0000FF" opacity="1.0" r="6.289752493758415" /><circle cx="987.7701447878057" cy="187.84196006460607" fill="#0000FF" opacity="0.9" r="10.391434765816918" /></g><g id="cell_0_2"><rect fill="#0000FF" height="100" width="100" x="0" y="200" /><path d="M 0 225.0 C -0.4 227.9 12.3 211.5 25.0 243.2 C 24.9 241.9 38.8 209.0 50.0 233.2 C 52.2 235.2 62.8 225.2 75.0 211.5 C 72.3 214.3 84.8 243.6 100.0 225.0" fill="none" opacity="1.0" stroke="#FF0000" stroke-width="5.164888445537512" /><path d="M 0 250.0 C -0.2 253.8 17.1 233.5 33.3 258.7 C 32.7 261.9 47.7 261.6 66.7 231.7 C 66.1 232.9 80.7 256.4 100.0 250.0" fill="none" opacity="0.92" stroke="#FF0000" stroke-width="5.164888445537512" /><path d="M 0 275.0 C 0.7 278.6 12.3 266.2 25.0 287.7 C 23.2 285.0 36.2 262.0 50.0 291.5 C 52.4 290.4 63.0 257.6 75.0 292.6 C 75.4 292.3 86.0 260.2 100.0 275.0" fill="none" opacity="1.0" stroke="#FF0000" stroke-width="5.164888445537512" /></g><g id="cell_1_2"><rect fill="#FFFF00" height="100" width="100" x="100" y="200" /><text dominant-baseline="central" fill="#0000FF" font-family="monospace, Courier, 'Courier New'" font-size="67.53525923824263px" font-weight="bold" opacity="1.0" text-anchor="middle" transform="rotate(0 150.0 250.0)" x="150.0" y="250.0">E</text></g><g id="cell_2_2"><rect fill="#0000FF" height="100" width="100" x="200" y="200" /><circle cx="250.0" cy="250.0" fill="#FF0000" opacity="1.0" r="45.85812103567762" /><circle cx="250.0" cy="250.0" fill="#0000FF" opacity="1.0" r="14.883510977297313" /></g><g id="cell_3_2"><rect fill="#FF0000" height="100" width="100" x="300" y="200" /><circle cx="325.42093208710776" cy="224.54837708231665" fill="#0000FF" opacity="1.0" r="13.396615032630327" /><circle cx="324.10045382793425" cy="275.73621585986996" fill="#0000FF" opacity="0.91" r="12.344153426079062" /><circle cx="375.099336269737" cy="224.4674706153317" fill="#0000FF" opacity="1.0" r="10.187831335938327" /><circle cx="375.121897741596" cy="275.601255246035" fill="#0000FF" opacity="1.0" r="21.472912770258056" /></g><g id="cell_4_2"><rect fill="#FF0000" height="100" width="100" x="400" y="200" /><circle cx="423.69402516791956" cy="225.08780063327754" fill="#FFFF00" opacity="1.0" r="18.036396212241957" /><circle cx="425.4267610231782" cy="275.7639268636198" fill="#FFFF00" opacity="1.0" r="19.138059153361436" /><circle cx="475.42735824266583" cy="225.00564303977316" fill="#FFFF00" opacity="1.0" r="16.42853161082098" /></g><g id="cell_5_2"><rect fill="#FF0000" height="100" width="100" x="500" y="200" /><g opacity="1.0" transform="rotate(0 550.0 250.0)"><rect fill="#0000FF" height="30.266400458545295" width="100" x="500" y="234.86679977072737" /><rect fill="#0000FF" height="100" width="30.266400458545295" x="534.8667997707273" y="200" /></g></g><g id="cell_6_2"><rect fill="#FF0000" height="100" width="100" x="600" y="200" /><text dominant-baseline="central" fill="#0000FF" font-family="monospace, Courier, 'Courier New'" font-size="67.01506892375338px" font-weight="bold" opacity="1.0" text-anchor="middle" transform="rotate(0 650.0 250.0)" x="650.0" y="250.0">6</text></g><g id="cell_7_2"><rect fill="#FFFF00" height="100" width="100" x="700" y="200" /><circle cx="750.5178015628512" cy="250.7167008327174" fill="#0000FF" opacity="1.0" r="44.40358833171717" /><circle cx="749.3461272887182" cy="249.63916822548475" fill="#FFFF00" opacity="1.0" r="33.30269124878787" /><circle cx="750.3233248094373" cy="250.30900766548592" fill="#0000FF" opacity="1.0" r="22.201794165858583" /><circle cx="749.7388970556241" cy="249.75501642143718" fill="#FFFF00" opacity="1.0" r="11.100897082929292" /></g><g id="cell_8_2"><rect fill="#FF0000" height="100" width="100" x="800" y="200" /><text dominant-baseline="central" fill="#0000FF" font-family="monospace, Courier, 'Courier New'" font-size="92.56034921955087px" font-weight="bold" opacity="1.0" text-anchor="middle" transform="rotate(0 850.0 250.0)" x="850.0" y="250.0">8</text></g><g id="cell_9_2"><rect fill="#0000FF" height="100" width="100" x="900" y="200" /><g opacity="0.87" transform="rotate(60 950.0 250.0)"><rect fill="#FF0000" height="52.50463648250775" width="79.13983334547751" x="910.4300833272613" y="223.74768175874613" /></g></g><g id="cell_0_3"><rect fill="#FF0000" height="100" width="100" x="0" y="300" /><path d="M 20.0 300 C 20.8 298.4 16.7 307.4 26.5 320.0 C 25.1 321.3 12.2 329.1 29.6 340.0 C 30.1 342.2 10.0 352.0 31.0 360.0 C 31.8 360.7 8.2 368.8 30.8 380.0 C 32.4 382.7 9.3 392.1 20.0 400.0" fill="none" opacity="1.0" stroke="#FFFF00" stroke-width="4.437605006761257" /><path d="M 40.0 300 C 43.4 300.1 32.6 306.5 51.9 316.7 C 50.5 314.0 27.7 324.1 52.3 333.3 C 51.7 334.5 32.4 340.3 42.3 350.0 C 42.7 352.8 44.1 359.9 30.4 366.7 C 29.8 363.8 51.7 372.9 26.5 383.3 C 26.1 382.6 51.4 393.2 40.0 400.0" fill="none" opacity="1.0" stroke="#FFFF00" stroke-width="4.437605006761257" /><path d="M 60.0 300 C 58.8 299.8 53.5 307.7 75.2 316.7 C 73.9 315.5 41.9 324.7 78.9 333.3 C 78.1 332.0 41.5 339.3 73.4 350.0 C 73.2 350.7 51.9 356.5 61.3 366.7 C 61.5 363.9 65.3 372.5 48.9 383.3 C 51.4 385.7 76.8 392.5 60.0 400.0" fill="none" opacity="1.0" stroke="#FFFF00" stroke-width="4.437605006761257" /><path d="M 80.0 300 C 82.1 297.8 74.7 308.1 88.0 316.7 C 88.5 314.1 68.4 327.7 95.1 333.3 C 92.9 331.2 63.0 339.9 97.2 350.0 C 97.0 352.8 60.0 356.2 99.0 366.7 C 99.1 363.8 60.4 372.4 97.0 383.3 C 97.6 380.8 66.6 391.5 80.0 400.0" fill="none" opacity="1.0" stroke="#FFFF00" stroke-width="4.437605006761257" /></g><g id="cell_1_3"><rect fill="#0000FF" height="100" width="100" x="100" y="300" /><g opacity="1.0"><rect fill="#FF0000" height="100" width="10.754029471429382" x="100.0" y="300" /><rect fill="#0000FF" height="100" width="10.760819952731012" x="114.28571428571429" y="300" /><rect fill="#FF0000" height="100" width="13.96135320307041" x="128.57142857142858" y="300" /><rect fill="#0000FF" height="100" width="16.75545347555774" x="142.85714285714286" y="300" /><rect fill="#FF0000" height="100" width="10.55472973551001" x="157.14285714285714" y="300" /><rect fill="#FF0000" height="100" width="10.950881631099515" x="171.42857142857144" y="300" /><rect fill="#FF0000" height="100" width="13.485681350229568" x="185.71428571428572" y="300" /></g></g><g id="cell_2_3"><rect fill="#FF0000" height="100" width="100" x="200" y="300" /><g opacity="1.0"><path d="M 300 300 L 199.27260313052682 300 A 100.72739686947317 100.72739686947317 0 0 0 300 400.7273968694732 Z" fill="#FFFF00" /></g></g><g id="cell_3_3"><rect fill="#FF0000" height="100" width="100" x="300" y="300" /><text dominant-baseline="central" fill="#0000FF" font-family="monospace, Courier, 'Courier New'" font-size="90.80190453190762px" font-weight="bold" opacity="1.0" text-anchor="middle" transform="rotate(90 350.0 350.0)" x="350.0" y="350.0">/</text></g><g id="cell_4_3"><rect fill="#0000FF" height="100" width="100" x="400" y="300" /><g opacity="1.0"><polygon fill="#FFFF00" points="450.0,300 500,300 500,400 450.0,400" /></g></g><g id="cell_5_3"><rect fill="#FFFF00" height="100" width="100" x="500" y="300" /><g opacity="1.0"><path d="M 500 400 L 598.2752437210117 400 A 98.27524372101173 98.27524372101173 0 0 0 500 301.72475627898825 Z" fill="#0000FF" /></g></g><g id="cell_6_3"><rect fill="#FF0000" height="100" width="100" x="600" y="300" /><g opacity="1.0" transform="rotate(-60 650.0 350.0)"><polygon fill="#FFFF00" points="591.1017826826238,308.8982173173762 691.1017826826238,408.8982173173762 708.8982173173762,391.1017826826238 608.8982173173762,291.1017826826238" /><polygon fill="#FFFF00" points="691.1017826826238,291.1017826826238 591.1017826826238,391.1017826826238 608.8982173173762,408.8982173173762 708.8982173173762,308.8982173173762" /></g></g><g id="cell_7_3"><rect fill="#FFFF00" height="100" width="100" x="700" y="300" /><circle cx="724.9814056682643" cy="376.3224055892784" fill="#FF0000" opacity="1.0" r="19.217072487017823" /><circle cx="773.8752082318574" cy="325.69840774586265" fill="#FF0000" opacity="1.0" r="19.786324130667353" /><circle cx="774.7610187566477" cy="374.1102007563307" fill="#FF0000" opacity="1.0" r="16.14248585489813" /></g><g id="cell_8_3"><rect fill="#FF0000" height="100" width="100" x="800" y="300" /><circle cx="816.1304910879505" cy="316.36774861032967" fill="#0000FF" opacity="1.0" r="7.153246720582332" /><circle cx="816.2498193988163" cy="350.8292979468841" fill="#0000FF" opacity="1.0" r="6.797302101354622" /><circle cx="816.0837910629651" cy="383.9317498068225" fill="#0000FF" opacity="1.0" r="10.838336049555938" /><circle cx="849.0796067998504" cy="316.77432863183986" fill="#0000FF" opacity="1.0" r="7.877140567959068" /><circle cx="850.7278001121529" cy="349.0736716844255" fill="#0000FF" opacity="1.0" r="13.91445884009589" /><circle cx="849.2355603543443" cy="382.51966059952764" fill="#0000FF" opacity="1.0" r="7.483991999204585" /><circle cx="882.483386204405" cy="316.17551524018296" fill="#0000FF" opacity="1.0" r="9.771294822204217" /><circle cx="883.596793135275" cy="349.628638247556" fill="#0000FF" opacity="1.0" r="14.186229144677364" /><circle cx="882.9860265611622" cy="383.39025166614977" fill="#0000FF" opacity="1.0" r="9.623872670685863" /></g><g id="cell_9_3"><rect fill="#FFFF00" height="100" width="100" x="900" y="300" /><circle cx="916.2055349432728" cy="316.936778378454" fill="#FF0000" opacity="1.0" r="7.242682213178322" /><circle cx="916.806850568888" cy="349.36466858581565" fill="#FF0000" opacity="1.0" r="12.627899505428392" /><circle cx="915.7166284655291" cy="384.1661999929426" fill="#FF0000" opacity="1.0" r="9.93690271557577" /><circle cx="950.7345508639246" cy="316.1730095887131" fill="#FF0000" opacity="1.0" r="8.774303510560365" /><circle cx="949.451306824758" cy="349.72449362019677" fill="#FF0000" opacity="1.0" r="10.177323053403546" /><circle cx="949.0244070746002" cy="383.0102072193582" fill="#FF0000" opacity="1.0" r="10.262534354129224" /><circle cx="984.0163665865142" cy="316.81409873404743" fill="#FF0000" opacity="1.0" r="6.699203963942252" /><circle cx="982.6095205493866" cy="350.16446660450794" fill="#FF0000" opacity="1.0" r="8.315896815865246" /><circle cx="984.1590597915985" cy="384.10781592736055" fill="#FF0000" opacity="1.0" r="12.565026721086356" /></g><g id="cell_0_4"><rect fill="#FF0000" height="100" width="100" x="0" y="400" /><circle cx="23.84715339734342" cy="424.1975061163446" fill="#0000FF" opacity="1.0" r="12.809766278030569" /><circle cx="24.413817883742478" cy="473.8607081649547" fill="#0000FF" opacity="1.0" r="18.65568075155053" /><circle cx="75.26643821805737" cy="423.96597525078533" fill="#0000FF" opacity="1.0" r="21.125767399019875" /><circle cx="74.54993972697648" cy="475.72283715712416" fill="#0000FF" opacity="1.0" r="16.397613154900416" /></g><g id="cell_1_4"><rect fill="#FF0000" height="100" width="100" x="100" y="400" /><g opacity="0.73" transform="rotate(-45 150.0 450.0)"><rect fill="#0000FF" height="58.14722517114147" width="43.34880592725166" x="128.32559703637418" y="420.92638741442926" /></g></g><g id="cell_2_4"><rect fill="#FF0000" height="100" width="100" x="200" y="400" /><g opacity="1.0"><polygon fill="#0000FF" points="300,400 300,500 200,400" /></g></g><g id="cell_3_4"><rect fill="#FF0000" height="100" width="100" x="300" y="400" /><circle cx="349.3549128055612" cy="449.63523401745204" fill="#0000FF" opacity="1.0" r="49.771656860595655" /><circle cx="349.35200245037726" cy="449.36250446591976" fill="#FF0000" opacity="1.0" r="33.18110457373044" /><circle cx="350.16005040237405" cy="450.61109758517296" fill="#0000FF" opacity="1.0" r="16.59055228686522" /></g><g id="cell_4_4"><rect fill="#FF0000" height="100" width="100" x="400" y="400" /><circle cx="450.0" cy="450.0" fill="#0000FF" opacity="1.0" r="46.59788258208371" /><circle cx="450.0" cy="450.0" fill="#0000FF" opacity="1.0" r="46.59788258208371" /></g><g id="cell_5_4"><rect fill="#FF0000" height="100" width="100" x="500" y="400" /><circle cx="550.0165230315965" cy="450.01242788314823" fill="#0000FF" opacity="0.65" r="46.85720914165294" /><circle cx="549.3625224231832" cy="450.2674537145652" fill="#FF0000" opacity="1.0" r="35.142906856239705" /><circle cx="549.7981516505549" cy="449.99651251975405" fill="#0000FF" opacity="1.0" r="23.42860457082647" /><circle cx="549.88660184126" cy="449.2837122198909" fill="#FF0000" opacity="1.0" r="11.714302285413234" /></g><g id="cell_6_4"><rect fill="#0000FF" height="100" width="100" x="600" y="400" /><circle cx="650.0" cy="450.0" fill="#FF0000" opacity="1.0" r="48.39782390733156" /><circle cx="650.0" cy="450.0" fill="#FF0000" opacity="0.9" r="48.39782390733156" /></g><g id="cell_7_4"><rect fill="#0000FF" height="100" width="100" x="700" y="400" /><path d="M 700 425.0 C 702.1 424.8 708.2 413.5 720.0 442.0 C 718.6 441.3 727.7 411.7 740.0 429.6 C 738.4 431.3 748.4 429.4 760.0 412.8 C 759.5 410.2 772.5 441.1 780.0 410.1 C 777.5 411.6 790.2 432.5 800.0 425.0" fill="none" opacity="1.0" stroke="#FF0000" stroke-width="2.633027187790374" /><path d="M 700 450.0 C 701.5 453.5 709.0 434.6 720.0 472.5 C 719.9 472.6 731.4 434.9 740.0 451.5 C 740.1 457.7 747.2 460.0 760.0 428.4 C 758.9 428.4 772.0 471.3 780.0 441.0 C 780.3 439.2 792.7 446.0 800.0 450.0" fill="none" opacity="1.0" stroke="#FF0000" stroke-width="2.633027187790374" /><path d="M 700 475.0 C 697.9 478.7 708.5 465.2 720.0 493.3 C 718.4 493.4 732.4 450.7 740.0 496.2 C 740.8 494.7 752.6 459.5 760.0 480.6 C 761.6 484.2 768.0 482.0 780.0 464.9 C 780.4 461.5 791.5 492.9 800.0 475.0" fill="none" opacity="1.0" stroke="#FF0000" stroke-width="2.633027187790374" /></g><g id="cell_8_4"><rect fill="#FF0000" height="100" width="100" x="800" y="400" /><path d="M 800 420.0 C 797.3 421.7 818.8 417.5 833.3 426.3 C 835.0 424.2 852.9 412.8 866.7 428.5 C 867.8 427.0 883.1 411.2 900.0 420.0" fill="none" opacity="1.0" stroke="#0000FF" stroke-width="3.5901993101757848" /><path d="M 800 440.0 C 801.7 442.2 809.6 438.4 814.3 445.6 C 812.6 442.9 823.1 432.2 828.6 448.6 C 826.6 447.6 837.1 431.5 842.9 449.1 C 840.6 449.6 847.6 430.3 857.1 451.4 C 854.8 451.6 864.1 428.6 871.4 451.3 C 869.5 451.2 880.0 429.8 885.7 451.3 C 886.6 450.2 895.3 429.8 900.0 440.0" fill="none" opacity="1.0" stroke="#0000FF" stroke-width="3.5901993101757848" /><path d="M 800 460.0 C 802.2 462.8 818.0 453.7 833.3 463.7 C 833.2 465.2 848.1 462.1 866.7 454.7 C 868.0 455.2 882.8 463.2 900.0 460.0" fill="none" opacity="1.0" stroke="#0000FF" stroke-width="3.5901993101757848" /><path d="M 800 480.0 C 797.4 482.9 805.8 473.8 816.7 493.5 C 815.5 492.2 823.2 461.7 833.3 499.0 C 835.7 498.4 844.1 460.2 850.0 498.8 C 848.9 497.8 859.1 464.0 866.7 493.0 C 864.8 495.1 876.1 470.6 883.3 487.4 C 886.1 481.9 894.1 478.6 900.0 480.0" fill="none" opacity="1.0" stroke="#0000FF" stroke-width="3.5901993101757848" /></g><g id="cell_9_4"><rect fill="#0000FF" height="100" width="100" x="900" y="400" /><circle cx="950.0" cy="450.0" fill="#FFFF00" opacity="1.0" r="37.670575754400964" /></g><g id="cell_0_5"><rect fill="#FFFF00" height="100" width="100" x="0" y="500" /><circle cx="11.96823981840699" cy="536.8127393004075" fill="#FF0000" opacity="0.67" r="9.595736549356609" /><circle cx="12.675546161678806" cy="587.1284829779753" fill="#FF0000" opacity="1.0" r="8.216995130077564" /><circle cx="37.60893734647164" cy="537.1309160963526" fill="#FF0000" opacity="1.0" r="9.922367273049815" /><circle cx="37.99185580642291" cy="562.5099180028151" fill="#FF0000" opacity="1.0" r="5.976399140086636" /><circle cx="36.775556763832064" cy="588.096201630086" fill="#FF0000" opacity="1.0" r="7.685937184221101" /><circle cx="62.11332495393607" cy="512.8920014867531" fill="#FF0000" opacity="1.0" r="6.39182941288112" /><circle cx="62.851450972879825" cy="537.4938853407263" fill="#FF0000" opacity="1.0" r="9.90656188459012" /><circle cx="62.92087808251784" cy="562.7963658784599" fill="#FF0000" opacity="1.0" r="7.076420972117248" /><circle cx="63.1688270709991" cy="587.8732313631543" fill="#FF0000" opacity="1.0" r="8.635555795675053" /><circle cx="87.39642163331038" cy="512.1184143494091" fill="#FF0000" opacity="1.0" r="6.735314843978338" /><circle cx="87.85729585860373" cy="537.4428779663504" fill="#FF0000" opacity="0.76" r="6.9212136813572105" /><circle cx="87.42687592129535" cy="562.6792018683599" fill="#FF0000" opacity="1.0" r="6.00937926393972" /><circle cx="88.15192026501181" cy="586.7603046594206" fill="#FF0000" opacity="1.0" r="10.01211207551524" /></g><g id="cell_1_5"><rect fill="#FFFF00" height="100" width="100" x="100" y="500" /><g opacity="1.0" transform="rotate(0 150.0 550.0)"><polygon fill="#0000FF" points="89.5376070107714,510.4623929892286 189.5376070107714,610.4623929892286 210.4623929892286,589.5376070107714 110.4623929892286,489.5376070107714" /><polygon fill="#0000FF" points="189.5376070107714,489.5376070107714 89.5376070107714,589.5376070107714 110.4623929892286,610.4623929892286 210.4623929892286,510.4623929892286" /></g></g><g id="cell_2_5"><rect fill="#FFFF00" height="100" width="100" x="200" y="500" /><circle cx="213.05511354166825" cy="512.2189638694451" fill="#FF0000" opacity="1.0" r="7.3541883196318425" /><circle cx="212.0930683506432" cy="537.514447120912" fill="#FF0000" opacity="0.95" r="6.942783608218156" /><circle cx="212.89072440433515" cy="563.1262366891784" fill="#FF0000" opacity="1.0" r="5.353467588658126" /><circle cx="212.6503068667336" cy="587.4940014620046" fill="#FF0000" opacity="1.0" r="8.235280560493052" /><circle cx="237.41011517917914" cy="512.1985805743024" fill="#FF0000" opacity="1.0" r="9.348107338315085" /><circle cx="237.13568365670872" cy="536.8024243282047" fill="#FF0000" opacity="0.61" r="8.489408297768541" /><circle cx="236.9739835602021" cy="561.7736087952559" fill="#FF0000" opacity="0.63" r="6.684702855174973" /><circle cx="237.23780505646147" cy="587.557919077648" fill="#FF0000" opacity="1.0" r="7.94831273194981" /><circle cx="261.8752467769653" cy="512.2847709817818" fill="#FF0000" opacity="1.0" r="9.329293837296282" /><circle cx="261.94436032772103" cy="537.5738237915155" fill="#FF0000" opacity="1.0" r="7.232419320612599" /><circle cx="262.67271466118274" cy="562.9801437178897" fill="#FF0000" opacity="1.0" r="8.262622677235541" /><circle cx="263.13129576329123" cy="587.4894017314841" fill="#FF0000" opacity="1.0" r="10.40515574832052" /><circle cx="287.1500961828592" cy="512.4150025888522" fill="#FF0000" opacity="1.0" r="8.980542490089864" /><circle cx="287.900036534198" cy="536.7991249340577" fill="#FF0000" opacity="1.0" r="8.742485197360821" /><circle cx="286.79747131320204" cy="562.776441202375" fill="#FF0000" opacity="0.7" r="7.948364210939526" /><circle cx="287.42652044597946" cy="587.9099493979842" fill="#FF0000" opacity="1.0" r="9.282089699887969" /></g><g id="cell_3_5"><rect fill="#0000FF" height="100" width="100" x="300" y="500" /><text dominant-baseline="central" fill="#FF0000" font-family="monospace, Courier, 'Courier New'" font-size="59.171674097724114px" font-weight="bold" opacity="1.0" text-anchor="middle" transform="rotate(0 350.0 550.0)" x="350.0" y="550.0">3</text></g><g id="cell_4_5"><rect fill="#FFFF00" height="100" width="100" x="400" y="500" /><circle cx="450.0" cy="550.0" fill="#FF0000" opacity="0.69" r="49.12138588505457" /></g><g id="cell_5_5"><rect fill="#0000FF" height="100" width="100" x="500" y="500" /><circle cx="524.2951590736196" cy="526.1761668218779" fill="#FFFF00" opacity="1.0" r="19.217346737008096" /><circle cx="525.8321699520254" cy="573.7849680773035" fill="#FFFF00" opacity="0.91" r="13.923664930809753" /><circle cx="574.0219827270606" cy="524.9611798439465" fill="#FFFF00" opacity="1.0" r="10.81939834322925" /><circle cx="574.2940221143526" cy="574.1122074724882" fill="#FFFF00" opacity="1.0" r="12.24992879569401" /></g><g id="cell_6_5"><rect fill="#FF0000" height="100" width="100" x="600" y="500" /><path d="M 600 520.0 C 600.3 521.4 613.8 515.5 633.3 527.6 C 634.5 526.7 648.4 512.8 666.7 528.3 C 666.4 526.7 684.7 512.0 700.0 520.0" fill="none" opacity="1.0" stroke="#FFFF00" stroke-width="6.43863071094567" /><path d="M 600 540.0 C 599.9 541.8 613.2 536.5 625.0 546.9 C 627.4 550.3 637.4 528.6 650.0 553.0 C 650.8 552.3 663.7 526.1 675.0 555.1 C 676.5 554.5 686.5 524.2 700.0 540.0" fill="none" opacity="1.0" stroke="#FFFF00" stroke-width="6.43863071094567" /><path d="M 600 560.0 C 602.7 562.5 606.0 558.2 616.7 565.8 C 619.4 564.0 622.5 554.1 633.3 567.8 C 634.2 569.1 642.5 549.6 650.0 570.7 C 647.8 571.0 659.7 549.2 666.7 570.6 C 664.3 570.5 677.7 550.7 683.3 569.1 C 681.8 568.5 694.6 552.5 700.0 560.0" fill="none" opacity="1.0" stroke="#FFFF00" stroke-width="6.43863071094567" /><path d="M 600 580.0 C 601.5 581.9 617.9 569.6 633.3 588.2 C 635.4 588.1 650.5 580.7 666.7 568.6 C 663.7 568.1 685.0 588.2 700.0 580.0" fill="none" opacity="1.0" stroke="#FFFF00" stroke-width="6.43863071094567" /></g><g id="cell_7_5"><rect fill="#0000FF" height="100" width="100" x="700" y="500" /><circle cx="726.2747343783599" cy="524.9762238330317" fill="#FFFF00" opacity="1.0" r="17.38920798458202" /><circle cx="723.9240128336781" cy="574.1769006267895" fill="#FFFF00" opacity="1.0" r="14.004843690889569" /><circle cx="776.1734114270452" cy="524.7306797404082" fill="#FFFF00" opacity="1.0" r="19.17297526844422" /><circle cx="775.8764056327609" cy="574.4342313632935" fill="#FFFF00" opacity="1.0" r="15.371997854086079" /></g><g id="cell_8_5"><rect fill="#FFFF00" height="100" width="100" x="800" y="500" /><g opacity="1.0" transform="rotate(0 850.0 550.0)"><rect fill="#0000FF" height="22.87523151087437" width="100" x="800" y="538.5623842445628" /><rect fill="#0000FF" height="100" width="22.87523151087437" x="838.5623842445628" y="500" /></g></g><g id="cell_9_5"><rect fill="#FF0000" height="100" width="100" x="900" y="500" /><circle cx="912.847550738653" cy="512.2532523451611" fill="#0000FF" opacity="0.79" r="10.355868021223111" /><circle cx="911.8474293671838" cy="562.7579978584547" fill="#0000FF" opacity="0.93" r="8.458935911062982" /><circle cx="912.0135528865089" cy="587.9699949366103" fill="#0000FF" opacity="0.72" r="5.861235522851234" /><circle cx="936.9415952126947" cy="511.9713133513691" fill="#0000FF" opacity="1.0" r="5.282598973195819" /><circle cx="938.1424441433236" cy="537.7528921276322" fill="#0000FF" opacity="0.74" r="5.0529947059453475" /><circle cx="938.0970231483267" cy="563.0636864537239" fill="#0000FF" opacity="1.0" r="10.280250527472337" /><circle cx="938.202128544111" cy="588.0557712323462" fill="#0000FF" opacity="1.0" r="10.084311523381487" /><circle cx="963.0805421969237" cy="512.9720758318362" fill="#0000FF" opacity="0.76" r="10.137586247683668" /><circle cx="962.2368774982117" cy="537.6071501511781" fill="#0000FF" opacity="1.0" r="6.034753818771447" /><circle cx="963.0974124995583" cy="562.6992934428777" fill="#0000FF" opacity="1.0" r="7.9525088252518445" /><circle cx="987.3623512981599" cy="512.1377315979055" fill="#0000FF" opacity="0.69" r="8.143025600700474" /><circle cx="987.3660518958684" cy="538.1180398571915" fill="#0000FF" opacity="1.0" r="9.194146519048473" /><circle cx="987.9439877766052" cy="588.1510124482455" fill="#0000FF" opacity="1.0" r="7.383273824762386" /></g><g id="cell_0_6"><rect fill="#FFFF00" height="100" width="100" x="0" y="600" /><circle cx="50.0" cy="650.0" fill="#0000FF" opacity="1.0" r="45.26932285086165" /></g><g id="cell_1_6"><rect fill="#FF0000" height="100" width="100" x="100" y="600" /><path d="M 116.66666666666667 600 C 121.3 600.4 108.8 605.7 128.4 616.7 C 127.1 615.5 99.7 623.8 132.8 633.3 C 132.4 633.0 97.3 643.0 138.5 650.0 C 136.2 649.7 94.0 660.4 138.5 666.7 C 139.0 668.6 95.7 677.8 135.3 683.3 C 135.4 680.7 100.2 693.6 116.7 700.0" fill="none" opacity="1.0" stroke="#FFFF00" stroke-width="4.752523425445478" /><path d="M 133.33333333333334 600 C 135.2 598.6 127.1 612.0 144.3 620.0 C 143.0 621.1 120.8 628.5 143.4 640.0 C 145.5 641.2 125.1 649.0 135.1 660.0 C 133.4 662.0 137.4 672.6 124.9 680.0 C 124.3 679.9 144.1 687.8 133.3 700.0" fill="none" opacity="1.0" stroke="#FFFF00" stroke-width="4.752523425445478" /><path d="M 150.0 600 C 149.9 600.4 144.9 608.4 157.5 620.0 C 154.7 619.9 141.9 627.5 160.0 640.0 C 159.1 638.1 138.9 651.0 161.9 660.0 C 160.1 658.4 138.4 667.5 162.3 680.0 C 161.7 681.0 136.4 687.1 150.0 700.0" fill="none" opacity="1.0" stroke="#FFFF00" stroke-width="4.752523425445478" /><path d="M 166.66666666666669 600 C 166.4 599.2 164.0 612.9 174.3 620.0 C 174.6 618.6 158.4 631.2 178.7 640.0 C 179.9 640.1 152.3 649.8 179.9 660.0 C 179.4 661.4 154.2 672.7 178.7 680.0 C 177.8 678.3 159.2 688.7 166.7 700.0" fill="none" opacity="1.0" stroke="#FFFF00" stroke-width="4.752523425445478" /><path d="M 183.33333333333334 600 C 185.7 600.9 173.5 608.7 195.3 620.0 C 193.7 622.2 166.9 627.9 198.1 640.0 C 199.6 641.4 171.9 648.5 191.8 660.0 C 194.0 658.6 178.3 667.6 180.1 680.0 C 180.2 681.6 195.0 691.3 183.3 700.0" fill="none" opacity="1.0" stroke="#FFFF00" stroke-width="4.752523425445478" /></g><g id="cell_2_6"><rect fill="#FFFF00" height="100" width="100" x="200" y="600" /><circle cx="250.6424172966658" cy="650.6941745129407" fill="#0000FF" opacity="0.84" r="48.62643376857821" /><circle cx="249.46668390095033" cy="649.3512102181818" fill="#FFFF00" opacity="1.0" r="36.46982532643366" /><circle cx="250.37464759353023" cy="650.1505270013282" fill="#0000FF" opacity="1.0" r="24.313216884289105" /><circle cx="249.4474648250253" cy="650.6248004471186" fill="#FFFF00" opacity="1.0" r="12.156608442144552" /></g><g id="cell_3_6"><rect fill="#0000FF" height="100" width="100" x="300" y="600" /><circle cx="312.90031471020603" cy="612.6838211189238" fill="#FF0000" opacity="0.72" r="8.296108617589606" /><circle cx="313.1633987660352" cy="686.8262975439723" fill="#FF0000" opacity="1.0" r="8.916487503455487" /><circle cx="337.5374182475168" cy="612.2831186126949" fill="#FF0000" opacity="0.93" r="6.76632893478222" /><circle cx="337.5412663685912" cy="637.952459607211" fill="#FF0000" opacity="0.76" r="9.228905444924292" /><circle cx="337.5632134101552" cy="661.9810236731179" fill="#FF0000" opacity="1.0" r="8.469437740349123" /><circle cx="337.71243908176166" cy="687.1342500012872" fill="#FF0000" opacity="0.95" r="9.591429092466045" /><circle cx="362.6874511025753" cy="612.2705516440609" fill="#FF0000" opacity="0.81" r="7.543004758139219" /><circle cx="362.60623659809124" cy="636.8471161430001" fill="#FF0000" opacity="1.0" r="6.1284522833793" /><circle cx="362.3840066287167" cy="662.7578969103045" fill="#FF0000" opacity="1.0" r="6.542773138842206" /><circle cx="362.96590252747905" cy="688.1024769105182" fill="#FF0000" opacity="1.0" r="6.275790371295193" /><circle cx="387.898242948866" cy="611.9183000894017" fill="#FF0000" opacity="1.0" r="6.472954325915099" /><circle cx="387.58680329484685" cy="637.9304175922896" fill="#FF0000" opacity="1.0" r="8.660053167964291" /><circle cx="387.6592399384615" cy="662.2969710167673" fill="#FF0000" opacity="1.0" r="5.090618739466661" /><circle cx="387.61173770986716" cy="688.239020174184" fill="#FF0000" opacity="1.0" r="6.30427977214429" /></g><g id="cell_4_6"><rect fill="#0000FF" height="100" width="100" x="400" y="600" /><g opacity="1.0"><polygon fill="#FFFF00" points="400,600 500,700 399.22710720970434,699.1472870586227" /></g></g><g id="cell_5_6"><rect fill="#0000FF" height="100" width="100" x="500" y="600" /><circle cx="511.9079010138556" cy="637.7591191442907" fill="#FFFF00" opacity="0.84" r="8.70497877973165" /><circle cx="511.76503696689" cy="662.0088939797531" fill="#FFFF00" opacity="1.0" r="5.973980434538968" /><circle cx="511.98807576090996" cy="687.703324557821" fill="#FFFF00" opacity="0.77" r="8.504067753179134" /><circle cx="536.9273684060211" cy="612.813218368854" fill="#FFFF00" opacity="1.0" r="10.20097967318707" /><circle cx="537.5950362747379" cy="638.0233686632937" fill="#FFFF00" opacity="1.0" r="10.25020984535843" /><circle cx="538.0282540742826" cy="662.4054841981325" fill="#FFFF00" opacity="1.0" r="10.30189307374254" /><circle cx="537.5060606143007" cy="687.5375397954758" fill="#FFFF00" opacity="1.0" r="7.903591762572155" /><circle cx="562.7901773383011" cy="612.3439128738236" fill="#FFFF00" opacity="1.0" r="9.883823333924772" /><circle cx="562.6595175922209" cy="637.3072564870769" fill="#FFFF00" opacity="0.6" r="10.619239215884734" /><circle cx="561.7676083899797" cy="662.5279752605803" fill="#FFFF00" opacity="1.0" r="8.24554079709988" /><circle cx="562.634662423973" cy="687.3926672547349" fill="#FFFF00" opacity="1.0" r="6.764589673692117" /><circle cx="587.7279018355601" cy="612.7552857070023" fill="#FFFF00" opacity="1.0" r="10.133330029448281" /><circle cx="587.6458262235301" cy="637.7858759475592" fill="#FFFF00" opacity="1.0" r="7.978711643505646" /><circle cx="587.4211286115951" cy="663.2205367858008" fill="#FFFF00" opacity="1.0" r="6.272323922875622" /><circle cx="587.0451013782474" cy="686.7859499661281" fill="#FFFF00" opacity="1.0" r="5.2254267846305265" /></g><g id="cell_6_6"><rect fill="#FFFF00" height="100" width="100" x="600" y="600" /><g opacity="1.0" transform="rotate(0 650.0 650.0)"><polygon fill="#0000FF" points="588.7450406708846,611.2549593291154 688.7450406708846,711.2549593291154 711.2549593291154,688.7450406708846 611.2549593291154,588.7450406708846" /><polygon fill="#0000FF" points="688.7450406708846,588.7450406708846 588.7450406708846,688.7450406708846 611.2549593291154,711.2549593291154 711.2549593291154,611.2549593291154" /></g></g><g id="cell_7_6"><rect fill="#FFFF00" height="100" width="100" x="700" y="600" /><text dominant-baseline="central" fill="#0000FF" font-family="monospace, Courier, 'Courier New'" font-size="92.0709516932299px" font-weight="bold" opacity="1.0" text-anchor="middle" transform="rotate(0 750.0 650.0)" x="750.0" y="650.0">C</text></g><g id="cell_8_6"><rect fill="#FF0000" height="100" width="100" x="800" y="600" /><circle cx="849.6086530150126" cy="650.4503096250114" fill="#FFFF00" opacity="0.72" r="48.40071970581449" /><circle cx="849.3419240956309" cy="650.1804730897684" fill="#FF0000" opacity="1.0" r="38.72057576465159" /><circle cx="850.7447243254194" cy="650.7221718118578" fill="#FFFF00" opacity="1.0" r="29.040431823488692" /><circle cx="850.7235602047452" cy="650.2454339205902" fill="#FF0000" opacity="1.0" r="19.360287882325796" /><circle cx="850.3033032938145" cy="650.2471659733924" fill="#FFFF00" opacity="1.0" r="9.680143941162898" /></g><g id="cell_9_6"><rect fill="#FF0000" height="100" width="100" x="900" y="600" /><circle cx="950.0" cy="650.0" fill="#0000FF" opacity="1.0" r="43.06184768810372" /><circle cx="950.0" cy="650.0" fill="#0000FF" opacity="0.69" r="43.06184768810372" /></g><g id="cell_0_7"><rect fill="#FFFF00" height="100" width="100" x="0" y="700" /><circle cx="49.479904668793075" cy="749.3596998273001" fill="#0000FF" opacity="0.75" r="45.58075174398394" /><circle cx="50.73401771014203" cy="749.7149612766776" fill="#FFFF00" opacity="1.0" r="22.79037587199197" /></g><g id="cell_1_7"><rect fill="#FF0000" height="100" width="100" x="100" y="700" /><path d="M 120.0 700 C 121.0 700.3 109.6 715.4 134.9 733.3 C 133.8 734.1 103.3 747.5 138.2 766.7 C 140.1 764.7 102.5 784.7 120.0 800.0" fill="none" opacity="1.0" stroke="#FFFF00" stroke-width="5.6626049324929335" /><path d="M 140.0 700 C 140.2 699.8 138.5 711.5 143.6 720.0 C 142.5 718.7 133.9 732.9 145.4 740.0 C 144.5 740.4 134.5 750.7 145.9 760.0 C 146.3 761.0 133.5 768.5 146.7 780.0 C 147.7 779.6 132.1 791.5 140.0 800.0" fill="none" opacity="1.0" stroke="#FFFF00" stroke-width="5.6626049324929335" /><path d="M 160.0 700 C 161.7 702.3 147.3 719.3 180.3 733.3 C 179.9 732.8 141.3 750.9 170.3 766.7 C 168.0 768.5 168.5 783.6 160.0 800.0" fill="none" opacity="1.0" stroke="#FFFF00" stroke-width="5.6626049324929335" /><path d="M 180.0 700 C 183.1 698.5 170.7 707.7 193.2 720.0 C 193.8 718.4 168.3 728.9 184.7 740.0 C 184.4 737.8 185.2 752.2 167.6 760.0 C 169.8 758.2 192.1 769.3 172.3 780.0 C 174.2 780.5 178.0 791.6 180.0 800.0" fill="none" opacity="0.69" stroke="#FFFF00" stroke-width="5.6626049324929335" /></g><g id="cell_2_7"><rect fill="#0000FF" height="100" width="100" x="200" y="700" /><circle cx="211.97905652780446" cy="712.7031425940279" fill="#FF0000" opacity="1.0" r="7.782473432691766" /><circle cx="211.91652931634738" cy="737.8712538667689" fill="#FF0000" opacity="1.0" r="5.797636395553404" /><circle cx="212.57568027057874" cy="761.7631029362178" fill="#FF0000" opacity="1.0" r="5.33737230686252" /><circle cx="212.86630748338365" cy="786.9001231865926" fill="#FF0000" opacity="1.0" r="7.427479242133927" /><circle cx="237.06811101963925" cy="712.152492753455" fill="#FF0000" opacity="1.0" r="5.5395952239528965" /><circle cx="236.81969429875724" cy="737.4731696120034" fill="#FF0000" opacity="1.0" r="9.27630009037294" /><circle cx="238.04733236086332" cy="762.2997570453334" fill="#FF0000" opacity="1.0" r="9.55958067668261" /><circle cx="237.3742870497291" cy="787.6703509052466" fill="#FF0000" opacity="1.0" r="6.107450971646241" /><circle cx="262.81745760405204" cy="712.0388947622015" fill="#FF0000" opacity="1.0" r="10.122888949608091" /><circle cx="262.50264049655055" cy="738.2194769740594" fill="#FF0000" opacity="0.9" r="6.307216338818597" /><circle cx="261.9363611524865" cy="762.548265896237" fill="#FF0000" opacity="1.0" r="7.880339031862997" /><circle cx="262.7906307740479" cy="787.4380253991582" fill="#FF0000" opacity="1.0" r="9.58742615849716" /><circle cx="286.9810821451614" cy="713.1529423299778" fill="#FF0000" opacity="1.0" r="9.092937228758037" /><circle cx="288.0126593418468" cy="736.7880528013527" fill="#FF0000" opacity="1.0" r="9.855773708183072" /><circle cx="287.15594440208923" cy="762.3400437629942" fill="#FF0000" opacity="0.66" r="8.794987658774575" /><circle cx="288.0184523603075" cy="787.1698955374135" fill="#FF0000" opacity="1.0" r="7.640633796255103" /></g><g id="cell_3_7"><rect fill="#FF0000" height="100" width="100" x="300" y="700" /><g opacity="1.0" transform="rotate(0 350.0 750.0)"><rect fill="#FFFF00" height="41.06871670214786" width="41.812438470811976" x="329.093780764594" y="729.4656416489261" /></g></g><g id="cell_4_7"><rect fill="#0000FF" height="100" width="100" x="400" y="700" /><g opacity="1.0"><polygon fill="#FFFF00" points="450.0,700 500,700 500,800 450.0,800" /></g></g><g id="cell_5_7"><rect fill="#FF0000" height="100" width="100" x="500" y="700" /><circle cx="550.0" cy="750.0" fill="#0000FF" opacity="1.0" r="41.97820566146383" /></g><g id="cell_6_7"><rect fill="#FF0000" height="100" width="100" x="600" y="700" /><g opacity="1.0"><rect fill="#FFFF00" height="27.651171099269433" width="100" x="600" y="700.0" /><rect fill="#FF0000" height="27.543991063288907" width="100" x="600" y="733.3333333333334" /><rect fill="#FFFF00" height="25.894087706413462" width="100" x="600" y="766.6666666666666" /></g></g><g id="cell_7_7"><rect fill="#0000FF" height="100" width="100" x="700" y="700" /><g opacity="1.0"><polygon fill="#FF0000" points="700,750.0 800,750.0 800,800 700,800" /></g></g><g id="cell_8_7"><rect fill="#0000FF" height="100" width="100" x="800" y="700" /><path d="M 825.0 700 C 826.1 702.0 821.6 707.7 834.9 720.0 C 833.3 717.7 813.9 731.9 839.0 740.0 C 838.1 739.4 809.5 748.8 840.0 760.0 C 839.3 762.4 810.7 767.2 839.1 780.0 C 838.5 781.2 814.9 790.9 825.0 800.0" fill="none" opacity="1.0" stroke="#FFFF00" stroke-width="3.885417191304107" /><path d="M 850.0 700 C 850.7 699.0 847.7 706.3 853.9 714.3 C 853.3 714.6 843.8 721.2 856.7 728.6 C 856.6 725.6 842.8 736.6 856.7 742.9 C 856.0 743.8 843.1 750.4 854.9 757.1 C 855.2 757.1 847.0 764.6 850.2 771.4 C 851.9 771.0 852.2 779.9 846.8 785.7 C 846.8 787.7 854.3 793.4 850.0 800.0" fill="none" opacity="1.0" stroke="#FFFF00" stroke-width="3.885417191304107" /><path d="M 875.0 700 C 875.9 698.0 870.6 707.7 880.4 714.3 C 880.4 713.9 866.8 719.6 882.4 728.6 C 882.5 730.6 868.7 735.2 879.5 742.9 C 879.1 744.6 873.3 750.1 874.0 757.1 C 874.7 757.8 878.9 766.2 868.9 771.4 C 869.4 768.7 881.4 779.6 867.7 785.7 C 868.1 785.2 879.8 791.1 875.0 800.0" fill="none" opacity="1.0" stroke="#FFFF00" stroke-width="3.885417191304107" /></g><g id="cell_9_7"><rect fill="#FF0000" height="100" width="100" x="900" y="700" /><g opacity="0.93" transform="rotate(0 950.0 750.0)"><rect fill="#0000FF" height="47.728481115167114" width="38.069296726316665" x="930.9653516368417" y="726.1357594424164" /></g></g><g id="cell_0_8"><rect fill="#FF0000" height="100" width="100" x="0" y="800" /><g opacity="1.0"><path d="M 0 900 L 94.39240554970117 900 A 94.39240554970117 94.39240554970117 0 0 0 0 805.6075944502988 Z" fill="#FFFF00" /></g></g><g id="cell_1_8"><rect fill="#0000FF" height="100" width="100" x="100" y="800" /><g opacity="1.0"><polygon fill="#FFFF00" points="100,800 150.0,800 150.0,900 100,900" /></g></g><g id="cell_2_8"><rect fill="#0000FF" height="100" width="100" x="200" y="800" /><text dominant-baseline="central" fill="#FF0000" font-family="monospace, Courier, 'Courier New'" font-size="68.26167754919229px" font-weight="bold" opacity="1.0" text-anchor="middle" transform="rotate(0 250.0 850.0)" x="250.0" y="850.0">D</text></g><g id="cell_3_8"><rect fill="#FF0000" height="100" width="100" x="300" y="800" /><g opacity="1.0"><path d="M 400 800 L 280.76002954937246 800 A 119.23997045062751 119.23997045062751 0 0 0 400 919.2399704506275 Z" fill="#FFFF00" /></g></g><g id="cell_4_8"><rect fill="#FFFF00" height="100" width="100" x="400" y="800" /><circle cx="450.0" cy="850.0" fill="#0000FF" opacity="1.0" r="50.99428711906994" /><circle cx="450.0" cy="850.0" fill="#0000FF" opacity="1.0" r="50.99428711906994" /></g><g id="cell_5_8"><rect fill="#FF0000" height="100" width="100" x="500" y="800" /><g opacity="1.0"><path d="M 500 800 L 609.5061683789052 800 A 109.50616837890517 109.50616837890517 0 0 0 500 909.5061683789052 Z" fill="#0000FF" /></g></g><g id="cell_6_8"><rect fill="#FFFF00" height="100" width="100" x="600" y="800" /><circle cx="650.0" cy="850.0" fill="#0000FF" opacity="0.84" r="43.195293970604425" /><circle cx="650.0" cy="850.0" fill="#FFFF00" opacity="1.0" r="13.909348501788704" /><circle cx="650.0" cy="850.0" fill="#0000FF" opacity="1.0" r="6.954674250894352" /></g><g id="cell_7_8"><rect fill="#FF0000" height="100" width="100" x="700" y="800" /><g opacity="1.0" transform="rotate(0 750.0 850.0)"><polygon fill="#0000FF" points="688.1628220190895,811.8371779809105 788.1628220190895,911.8371779809105 811.8371779809105,888.1628220190895 711.8371779809105,788.1628220190895" /><polygon fill="#0000FF" points="788.1628220190895,788.1628220190895 688.1628220190895,888.1628220190895 711.8371779809105,911.8371779809105 811.8371779809105,811.8371779809105" /></g></g><g id="cell_8_8"><rect fill="#0000FF" height="100" width="100" x="800" y="800" /><path d="M 800 820.0 C 800.8 822.6 808.0 818.5 816.7 824.2 C 818.9 823.2 827.1 813.5 833.3 825.5 C 835.2 824.2 844.3 814.6 850.0 826.5 C 852.4 826.9 857.5 813.7 866.7 825.4 C 867.3 825.0 872.1 816.0 883.3 824.6 C 882.9 823.5 892.0 817.9 900.0 820.0" fill="none" opacity="1.0" stroke="#FFFF00" stroke-width="4.769535036450604" /><path d="M 800 840.0 C 797.7 840.9 810.4 829.5 825.0 856.1 C 827.2 857.0 835.6 825.1 850.0 850.1 C 852.4 849.3 859.5 835.7 875.0 834.0 C 873.9 834.2 890.2 852.5 900.0 840.0" fill="none" opacity="1.0" stroke="#FFFF00" stroke-width="4.769535036450604" /><path d="M 800 860.0 C 801.2 859.2 807.9 848.9 814.3 874.9 C 812.8 874.8 821.3 842.4 828.6 877.7 C 828.7 876.7 837.5 846.2 842.9 863.8 C 840.9 865.6 847.8 863.6 857.1 847.4 C 857.3 848.2 862.0 875.8 871.4 841.5 C 871.7 843.0 880.8 877.6 885.7 851.6 C 883.3 849.4 890.1 862.1 900.0 860.0" fill="none" opacity="1.0" stroke="#FFFF00" stroke-width="4.769535036450604" /><path d="M 800 880.0 C 800.8 879.6 814.1 873.5 825.0 886.6 C 826.8 884.9 838.1 871.8 850.0 886.9 C 850.7 888.2 862.3 873.2 875.0 882.5 C 875.9 882.3 888.5 881.7 900.0 880.0" fill="none" opacity="1.0" stroke="#FFFF00" stroke-width="4.769535036450604" /></g><g id="cell_9_8"><rect fill="#FF0000" height="100" width="100" x="900" y="800" /><path d="M 916.6666666666666 800 C 915.6 799.1 909.4 807.8 925.8 820.0 C 925.9 817.8 907.8 829.6 924.3 840.0 C 923.4 837.2 916.0 849.5 914.8 860.0 C 914.8 862.5 922.8 871.8 907.4 880.0 C 908.3 878.1 927.0 890.1 916.7 900.0" fill="none" opacity="1.0" stroke="#FFFF00" stroke-width="5.242016237498815" /><path d="M 933.3333333333334 800 C 935.8 802.0 922.9 814.2 944.7 825.0 C 946.2 826.9 928.0 836.8 930.7 850.0 C 927.6 848.5 944.8 864.0 923.5 875.0 C 923.7 877.9 936.0 888.0 933.3 900.0" fill="none" opacity="1.0" stroke="#FFFF00" stroke-width="5.242016237498815" /><path d="M 950.0 800 C 952.7 799.7 945.8 811.1 954.2 816.7 C 952.7 816.4 944.4 822.9 955.5 833.3 C 956.0 833.4 943.0 840.2 955.0 850.0 C 955.5 851.7 946.8 857.0 953.6 866.7 C 952.5 868.3 948.3 875.6 950.7 883.3 C 949.8 885.9 950.3 891.4 950.0 900.0" fill="none" opacity="1.0" stroke="#FFFF00" stroke-width="5.242016237498815" /><path d="M 966.6666666666666 800 C 968.6 800.7 955.6 808.8 986.6 820.0 C 986.7 822.9 944.8 828.3 983.1 840.0 C 983.5 840.5 964.4 848.7 956.4 860.0 C 955.1 861.8 982.7 867.5 945.6 880.0 C 944.9 879.9 984.9 892.9 966.7 900.0" fill="none" opacity="1.0" stroke="#FFFF00" stroke-width="5.242016237498815" /><path d="M 983.3333333333334 800 C 982.6 799.9 973.1 806.0 998.7 814.3 C 998.4 815.6 966.8 819.5 997.5 828.6 C 995.3 826.9 979.8 834.4 980.1 842.9 C 981.4 841.2 996.7 848.7 969.0 857.1 C 968.8 856.2 999.7 865.6 968.5 871.4 C 970.3 874.3 988.5 880.3 983.0 885.7 C 985.9 886.5 976.9 890.6 983.3 900.0" fill="none" opacity="1.0" stroke="#FFFF00" stroke-width="5.242016237498815" /></g><g id="cell_0_9"><rect fill="#FFFF00" height="100" width="100" x="0" y="900" /><g opacity="1.0" transform="rotate(0 50.0 950.0)"><polygon fill="#0000FF" points="-7.913139819711669,907.9131398197117 92.08686018028833,1007.9131398197117 107.91313981971167,992.0868601802883 7.913139819711669,892.0868601802883" /><polygon fill="#0000FF" points="92.08686018028833,892.0868601802883 -7.913139819711669,992.0868601802883 7.913139819711669,1007.9131398197117 107.91313981971167,907.9131398197117" /></g></g><g id="cell_1_9"><rect fill="#FF0000" height="100" width="100" x="100" y="900" /><circle cx="150.0" cy="950.0" fill="#0000FF" opacity="1.0" r="48.28948523460317" /></g><g id="cell_2_9"><rect fill="#0000FF" height="100" width="100" x="200" y="900" /><g opacity="1.0"><polygon fill="#FF0000" points="300,900 300,1000 200,900" /></g></g><g id="cell_3_9"><rect fill="#FFFF00" height="100" width="100" x="300" y="900" /><g opacity="1.0"><polygon fill="#0000FF" points="300,950.0 400,950.0 400,1000 300,1000" /></g></g><g id="cell_4_9"><rect fill="#0000FF" height="100" width="100" x="400" y="900" /><text dominant-baseline="central" fill="#FFFF00" font-family="monospace, Courier, 'Courier New'" font-size="57.01815385177991px" font-weight="bold" opacity="0.64" text-anchor="middle" transform="rotate(0 450.0 950.0)" x="450.0" y="950.0">@</text></g><g id="cell_5_9"><rect fill="#0000FF" height="100" width="100" x="500" y="900" /><path d="M 520.0 900 C 521.1 898.5 510.4 918.5 531.2 933.3 C 529.9 934.5 507.0 950.0 534.1 966.7 C 534.5 965.3 504.9 980.3 520.0 1000.0" fill="none" opacity="1.0" stroke="#FF0000" stroke-width="4.187848882810701" /><path d="M 540.0 900 C 544.8 901.0 528.1 906.0 555.9 914.3 C 555.3 915.1 522.1 920.1 552.4 928.6 C 551.5 929.1 534.5 933.8 540.9 942.9 C 539.7 944.6 548.1 949.9 525.8 957.1 C 525.1 959.4 557.3 962.6 526.1 971.4 C 525.9 970.1 550.5 976.6 541.8 985.7 C 541.9 983.2 529.9 993.6 540.0 1000.0" fill="none" opacity="0.83" stroke="#FF0000" stroke-width="4.187848882810701" /><path d="M 560.0 900 C 561.7 897.8 552.0 909.4 571.0 914.3 C 572.4 917.1 544.4 921.5 576.5 928.6 C 577.8 926.5 542.3 936.6 575.6 942.9 C 576.4 939.9 547.5 948.2 571.3 957.1 C 571.1 960.0 554.9 966.7 561.7 971.4 C 566.2 968.5 559.3 979.1 552.9 985.7 C 555.2 987.2 568.9 993.5 560.0 1000.0" fill="none" opacity="1.0" stroke="#FF0000" stroke-width="4.187848882810701" /><path d="M 580.0 900 C 580.4 901.0 566.3 915.3 592.4 933.3 C 589.0 931.5 582.8 950.2 564.5 966.7 C 565.0 968.1 591.8 983.2 580.0 1000.0" fill="none" opacity="1.0" stroke="#FF0000" stroke-width="4.187848882810701" /></g><g id="cell_6_9"><rect fill="#0000FF" height="100" width="100" x="600" y="900" /><g opacity="0.61"><path d="M 700 1000 L 575.9077264652294 1000 A 124.09227353477057 124.09227353477057 0 0 0 700 875.9077264652294 Z" fill="#FF0000" /></g></g><g id="cell_7_9"><rect fill="#FFFF00" height="100" width="100" x="700" y="900" /><circle cx="750.0" cy="950.0" fill="#FF0000" opacity="1.0" r="45.636640851688895" /><circle cx="750.0" cy="950.0" fill="#FF0000" opacity="1.0" r="45.636640851688895" /></g><g id="cell_8_9"><rect fill="#FFFF00" height="100" width="100" x="800" y="900" /><text dominant-baseline="central" fill="#0000FF" font-family="monospace, Courier, 'Courier New'" font-size="74.1474972275569px" font-weight="bold" opacity="1.0" text-anchor="middle" transform="rotate(0 850.0 950.0)" x="850.0" y="950.0">?</text></g><g id="cell_9_9"><rect fill="#FFFF00" height="100" width="100" x="900" y="900" /><circle cx="950.2700546355225" cy="949.408802378705" fill="#FF0000" opacity="1.0" r="43.33642886871426" /><circle cx="950.5477706064644" cy="949.833386566609" fill="#FFFF00" opacity="0.85" r="34.66914309497141" /><circle cx="949.4974733434767" cy="949.7099656951052" fill="#FF0000" opacity="1.0" r="26.001857321228552" /><circle cx="949.8061443137875" cy="949.6496989386325" fill="#FFFF00" opacity="1.0" r="17.334571547485705" /><circle cx="950.6152169213747" cy="949.4399580052906" fill="#FF0000" opacity="1.0" r="8.667285773742853" /></g></g><g id="big_block_element"><rect fill="#0000FF" height="300" width="300" x="100" y="300" /><g opacity="1.0" transform="rotate(0 250.0 450.0)"><rect fill="#FF0000" height="71.03806122984159" width="300" x="100" y="414.4809693850792" /><rect fill="#FF0000" height="300" width="71.03806122984159" x="214.48096938507922" y="300" /></g></g></svg>